<?xml version="1.0" encoding="UTF-8"?> <svg xmlns="http://www.w3.org/2000/svg" id="Layer_2" data-name="Layer 2" viewBox="0 0 100.97 98.06"><defs><style> .cls-1 { fill: none; stroke: #0090a1; stroke-miterlimit: 10; stroke-width: 3px; } .cls-2 { fill: #a2dadd; } </style></defs><g id="Layer_1-2" data-name="Layer 1"><g><path class="cls-1" d="M55.25,70.28c1.24-.13,2.31-.66,2.97-1.34,.58-.59,.67-1.5,.23-2.2-5.68-9.25-4.53-6.82-6.5-19.85-1.29-8.52-10.77-18.64-29.75-15.5-3.98,.66-7.96,1.83-11.29,4.1C3.19,40.77-.97,51.9,3.07,64.84c2.27,7.27,7.34,15.08,5.79,23.18l-2.21,9.06"></path><path class="cls-1" d="M38.99,97.6c-.72-2.24-.67-5.01-.17-7.5,.3-1.46,1.43-2.62,2.88-2.98,1.33-.33,2.7-.48,4.07-.46,1.42,.02,2.84,.24,4.26,.11,2.93-.27,4.84-2.07,4.19-4.92-.18-.77-.31-1.55-.31-2.34v-.83"></path><path class="cls-1" d="M43.02,28.7V5.71c0-2.32,1.88-4.21,4.21-4.21h38.55"></path><path class="cls-1" d="M85.78,1.5h9.49c2.32,0,4.21,1.88,4.21,4.21V39.2c0,2.32-1.88,4.21-4.21,4.21H55.62"></path><path class="cls-1" d="M53.23,36.51h39.33V8.4H49.92V31.35"></path><path class="cls-1" d="M70.94,78.69c.2,2.52,.49,4.6,.9,6,2.71,9.26,11.43,9.13,15.33,5.23,2.87-2.87,3.37-7.79,1.19-11.21s-6.88-4.13-10.84-4.13H39.26c-5.46,0-9.89,4.43-9.89,9.89v12.62"></path><path class="cls-1" d="M55.62,36.51c0-8.63,6.99-15.62,15.62-15.62s15.62,6.99,15.62,15.62"></path><path class="cls-1" d="M63,36.51c0-4.55,3.69-8.25,8.25-8.25s8.25,3.69,8.25,8.25"></path><line class="cls-1" x1="71.24" y1="43.41" x2="71.24" y2="74.57"></line><path class="cls-2" d="M41.96,38.96c-2.51-1.82-6.63-3.71-12.94-3.71-1.84,0-3.86,.16-6.09,.53-4.04,.67-7.15,1.78-9.5,3.39-6.38,4.36-8.89,12.92-6.69,22.21,1.44-2.35,3.12-4.56,5.03-6.55,6.45-6.73,15.25-11.07,24.46-12.51,2.88-.45,5.79-.62,8.7-.54-.83-1.04-1.83-1.99-2.97-2.82Z"></path></g></g></svg> 